<svg width="4002" height="1050" viewBox="0 0 4002 1050" fill="none" xmlns="http://www.w3.org/2000/svg">
<path d="M1317.03 414.618H1291.59V529.838C1291.59 545.005 1288.25 556.176 1281.56 563.352C1274.87 570.528 1266.15 574.116 1255.38 574.116C1243.81 574.116 1234.84 570.365 1228.48 562.863C1222.11 555.361 1218.93 544.353 1218.93 529.838V253.896C1218.93 238.24 1222.44 226.906 1229.45 219.893C1236.47 212.88 1247.8 209.374 1263.46 209.374H1381.61C1397.92 209.374 1411.87 210.108 1423.44 211.576C1435.02 212.88 1445.46 215.653 1454.76 219.893C1466.01 224.623 1475.96 231.391 1484.6 240.197C1493.25 249.004 1499.77 259.278 1504.17 271.021C1508.74 282.6 1511.02 294.913 1511.02 307.959C1511.02 334.706 1503.44 356.07 1488.27 372.052C1473.27 388.035 1450.44 399.369 1419.77 406.056C1432.66 412.905 1444.97 423.017 1456.71 436.39C1468.46 449.763 1478.89 464.033 1488.03 479.2C1497.32 494.204 1504.5 507.821 1509.55 520.053C1514.77 532.121 1517.38 540.438 1517.38 545.005C1517.38 549.734 1515.83 554.464 1512.73 559.193C1509.8 563.76 1505.72 567.348 1500.5 569.957C1495.28 572.729 1489.25 574.116 1482.4 574.116C1474.25 574.116 1467.4 572.159 1461.85 568.245C1456.31 564.494 1451.5 559.683 1447.42 553.812C1443.5 547.94 1438.12 539.297 1431.27 527.881L1402.16 479.444C1391.72 461.668 1382.35 448.132 1374.03 438.836C1365.88 429.54 1357.56 423.18 1349.08 419.755C1340.6 416.33 1329.91 414.618 1317.03 414.618ZM1358.62 263.926H1291.59V362.512H1356.66C1374.11 362.512 1388.79 361.044 1400.69 358.108C1412.6 355.01 1421.65 349.873 1427.85 342.697C1434.21 335.358 1437.39 325.328 1437.39 312.607C1437.39 302.659 1434.86 293.934 1429.8 286.432C1424.75 278.767 1417.74 273.059 1408.77 269.308C1400.29 265.72 1383.57 263.926 1358.62 263.926ZM1677.61 414.618H1652.17V529.838C1652.17 545.005 1648.83 556.176 1642.14 563.352C1635.46 570.528 1626.73 574.116 1615.97 574.116C1604.39 574.116 1595.42 570.365 1589.06 562.863C1582.7 555.361 1579.52 544.353 1579.52 529.838V253.896C1579.52 238.24 1583.02 226.906 1590.04 219.893C1597.05 212.88 1608.38 209.374 1624.04 209.374H1742.2C1758.5 209.374 1772.45 210.108 1784.03 211.576C1795.61 212.88 1806.04 215.653 1815.34 219.893C1826.59 224.623 1836.54 231.391 1845.18 240.197C1853.83 249.004 1860.35 259.278 1864.75 271.021C1869.32 282.6 1871.6 294.913 1871.6 307.959C1871.6 334.706 1864.02 356.07 1848.85 372.052C1833.85 388.035 1811.02 399.369 1780.36 406.056C1793.24 412.905 1805.55 423.017 1817.3 436.39C1829.04 449.763 1839.48 464.033 1848.61 479.2C1857.91 494.204 1865.08 507.821 1870.14 520.053C1875.36 532.121 1877.96 540.438 1877.96 545.005C1877.96 549.734 1876.42 554.464 1873.32 559.193C1870.38 563.76 1866.3 567.348 1861.09 569.957C1855.87 572.729 1849.83 574.116 1842.98 574.116C1834.83 574.116 1827.98 572.159 1822.43 568.245C1816.89 564.494 1812.08 559.683 1808 553.812C1804.09 547.94 1798.71 539.297 1791.86 527.881L1762.74 479.444C1752.31 461.668 1742.93 448.132 1734.61 438.836C1726.46 429.54 1718.14 423.18 1709.66 419.755C1701.18 416.33 1690.5 414.618 1677.61 414.618ZM1719.2 263.926H1652.17V362.512H1717.24C1734.69 362.512 1749.37 361.044 1761.28 358.108C1773.18 355.01 1782.23 349.873 1788.43 342.697C1794.79 335.358 1797.97 325.328 1797.97 312.607C1797.97 302.659 1795.44 293.934 1790.39 286.432C1785.33 278.767 1778.32 273.059 1769.35 269.308C1760.87 265.72 1744.15 263.926 1719.2 263.926ZM2098.38 203.258C2135.56 203.258 2167.44 210.842 2194.03 226.009C2220.77 241.013 2240.99 262.458 2254.69 290.346C2268.39 318.071 2275.24 350.688 2275.24 388.198C2275.24 415.922 2271.49 441.119 2263.99 463.788C2256.49 486.457 2245.23 506.109 2230.23 522.744C2215.23 539.378 2196.8 552.099 2174.94 560.906C2153.09 569.712 2128.06 574.116 2099.84 574.116C2071.79 574.116 2046.68 569.631 2024.5 560.661C2002.32 551.528 1983.81 538.726 1968.97 522.254C1954.13 505.783 1942.87 485.968 1935.21 462.81C1927.71 439.651 1923.96 414.618 1923.96 387.708C1923.96 360.147 1927.87 334.869 1935.7 311.874C1943.69 288.878 1955.19 269.308 1970.19 253.163C1985.19 237.017 2003.46 224.704 2024.99 216.224C2046.51 207.58 2070.98 203.258 2098.38 203.258ZM2201.61 387.708C2201.61 361.452 2197.37 338.701 2188.89 319.457C2180.41 300.213 2168.26 285.698 2152.44 275.913C2136.78 265.965 2118.76 260.991 2098.38 260.991C2083.86 260.991 2070.41 263.763 2058.01 269.308C2045.78 274.69 2035.18 282.6 2026.21 293.037C2017.4 303.475 2010.39 316.848 2005.17 333.156C2000.12 349.302 1997.59 367.486 1997.59 387.708C1997.59 408.094 2000.12 426.523 2005.17 442.995C2010.39 459.466 2017.65 473.166 2026.94 484.092C2036.4 494.856 2047.17 502.929 2059.23 508.311C2071.47 513.692 2084.84 516.383 2099.35 516.383C2117.95 516.383 2134.99 511.735 2150.48 502.439C2166.14 493.144 2178.53 478.792 2187.67 459.385C2196.96 439.978 2201.61 416.085 2201.61 387.708ZM2434.98 414.618H2409.54V529.838C2409.54 545.005 2406.2 556.176 2399.51 563.352C2392.83 570.528 2384.1 574.116 2373.34 574.116C2361.76 574.116 2352.79 570.365 2346.43 562.863C2340.07 555.361 2336.89 544.353 2336.89 529.838V253.896C2336.89 238.24 2340.4 226.906 2347.41 219.893C2354.42 212.88 2365.75 209.374 2381.41 209.374H2499.57C2515.88 209.374 2529.82 210.108 2541.4 211.576C2552.98 212.88 2563.42 215.653 2572.71 219.893C2583.96 224.623 2593.91 231.391 2602.56 240.197C2611.2 249.004 2617.72 259.278 2622.13 271.021C2626.69 282.6 2628.98 294.913 2628.98 307.959C2628.98 334.706 2621.39 356.07 2606.23 372.052C2591.22 388.035 2568.39 399.369 2537.73 406.056C2550.61 412.905 2562.93 423.017 2574.67 436.39C2586.41 449.763 2596.85 464.033 2605.98 479.2C2615.28 494.204 2622.45 507.821 2627.51 520.053C2632.73 532.121 2635.34 540.438 2635.34 545.005C2635.34 549.734 2633.79 554.464 2630.69 559.193C2627.75 563.76 2623.68 567.348 2618.46 569.957C2613.24 572.729 2607.2 574.116 2600.35 574.116C2592.2 574.116 2585.35 572.159 2579.81 568.245C2574.26 564.494 2569.45 559.683 2565.37 553.812C2561.46 547.94 2556.08 539.297 2549.23 527.881L2520.12 479.444C2509.68 461.668 2500.3 448.132 2491.98 438.836C2483.83 429.54 2475.51 423.18 2467.03 419.755C2458.55 416.33 2447.87 414.618 2434.98 414.618ZM2476.57 263.926H2409.54V362.512H2474.61C2492.06 362.512 2506.74 361.044 2518.65 358.108C2530.55 355.01 2539.6 349.873 2545.8 342.697C2552.16 335.358 2555.34 325.328 2555.34 312.607C2555.34 302.659 2552.81 293.934 2547.76 286.432C2542.7 278.767 2535.69 273.059 2526.72 269.308C2518.24 265.72 2501.52 263.926 2476.57 263.926ZM2896.35 247.292V350.036H3053.16V247.292C3053.16 232.614 3056.42 221.605 3062.95 214.267C3069.63 206.928 3078.36 203.258 3089.12 203.258C3100.05 203.258 3108.86 206.928 3115.54 214.267C3122.39 221.442 3125.82 232.451 3125.82 247.292V529.838C3125.82 544.679 3122.39 555.769 3115.54 563.107C3108.69 570.446 3099.89 574.116 3089.12 574.116C3078.2 574.116 3069.47 570.446 3062.95 563.107C3056.42 555.605 3053.16 544.516 3053.16 529.838V409.236H2896.35V529.838C2896.35 544.679 2892.93 555.769 2886.08 563.107C2879.23 570.446 2870.42 574.116 2859.66 574.116C2848.73 574.116 2840.01 570.446 2833.49 563.107C2826.96 555.605 2823.7 544.516 2823.7 529.838V247.292C2823.7 232.614 2826.88 221.605 2833.24 214.267C2839.76 206.928 2848.57 203.258 2859.66 203.258C2870.59 203.258 2879.39 206.928 2886.08 214.267C2892.93 221.442 2896.35 232.451 2896.35 247.292ZM3206.79 529.838V247.292C3206.79 232.614 3210.13 221.605 3216.82 214.267C3223.51 206.928 3232.15 203.258 3242.75 203.258C3253.68 203.258 3262.48 206.928 3269.17 214.267C3276.02 221.442 3279.44 232.451 3279.44 247.292V529.838C3279.44 544.679 3276.02 555.769 3269.17 563.107C3262.48 570.446 3253.68 574.116 3242.75 574.116C3232.31 574.116 3223.67 570.446 3216.82 563.107C3210.13 555.605 3206.79 544.516 3206.79 529.838ZM3413.99 250.961L3495.21 491.431L3576.67 249.249C3580.91 236.528 3584.09 227.721 3586.21 222.829C3588.33 217.773 3591.83 213.288 3596.73 209.374C3601.62 205.297 3608.31 203.258 3616.79 203.258C3622.98 203.258 3628.69 204.808 3633.91 207.906C3639.29 211.005 3643.45 215.164 3646.39 220.382C3649.49 225.438 3651.04 230.575 3651.04 235.794C3651.04 239.382 3650.55 243.296 3649.57 247.536C3648.59 251.613 3647.37 255.69 3645.9 259.768C3644.43 263.682 3642.96 267.759 3641.49 271.999L3554.65 506.354C3551.55 515.323 3548.45 523.885 3545.36 532.04C3542.26 540.031 3538.67 547.125 3534.59 553.322C3530.51 559.356 3525.05 564.331 3518.2 568.245C3511.52 572.159 3503.28 574.116 3493.49 574.116C3483.71 574.116 3475.39 572.159 3468.54 568.245C3461.86 564.494 3456.39 559.52 3452.15 553.322C3448.07 546.962 3444.49 539.786 3441.39 531.795C3438.29 523.804 3435.19 515.323 3432.09 506.354L3346.72 273.956C3345.25 269.716 3343.7 265.557 3342.07 261.48C3340.6 257.403 3339.3 253 3338.15 248.27C3337.18 243.541 3336.69 239.545 3336.69 236.283C3336.69 227.966 3340.03 220.382 3346.72 213.533C3353.4 206.683 3361.8 203.258 3371.91 203.258C3384.31 203.258 3393.03 207.091 3398.09 214.756C3403.31 222.258 3408.61 234.326 3413.99 250.961ZM3942.14 265.394H3778.49V353.46H3929.18C3940.27 353.46 3948.5 355.988 3953.89 361.044C3959.43 365.937 3962.2 372.46 3962.2 380.614C3962.2 388.769 3959.51 395.455 3954.13 400.674C3948.75 405.729 3940.43 408.257 3929.18 408.257H3778.49V510.268H3947.77C3959.19 510.268 3967.75 512.958 3973.46 518.34C3979.33 523.559 3982.26 530.572 3982.26 539.378C3982.26 547.859 3979.33 554.79 3973.46 560.172C3967.75 565.391 3959.19 568 3947.77 568H3750.35C3734.54 568 3723.12 564.494 3716.11 557.481C3709.26 550.468 3705.83 539.134 3705.83 523.478V253.896C3705.83 243.459 3707.38 234.979 3710.48 228.455C3713.58 221.769 3718.39 216.958 3724.91 214.022C3731.6 210.923 3740.08 209.374 3750.35 209.374H3942.14C3953.72 209.374 3962.28 211.983 3967.83 217.202C3973.54 222.258 3976.39 228.944 3976.39 237.262C3976.39 245.742 3973.54 252.592 3967.83 257.811C3962.28 262.866 3953.72 265.394 3942.14 265.394Z" fill="white"/>
<path d="M1340.92 805.06C1340.92 813.9 1338.79 822.145 1334.54 829.795C1330.29 837.275 1323.83 843.31 1315.16 847.9C1306.49 852.49 1295.87 854.785 1283.29 854.785C1271.05 854.785 1260.08 852.66 1250.39 848.41C1240.7 843.99 1232.97 837.87 1227.19 830.05C1221.41 822.23 1218.09 813.22 1217.24 803.02H1248.35C1249.2 810.84 1252.52 817.555 1258.3 823.165C1264.25 828.775 1272.15 831.58 1282.01 831.58C1290.85 831.58 1297.65 829.2 1302.41 824.44C1307.34 819.68 1309.81 813.56 1309.81 806.08C1309.81 799.62 1308.02 794.35 1304.45 790.27C1300.88 786.02 1296.46 782.705 1291.19 780.325C1285.92 777.945 1278.7 775.225 1269.52 772.165C1258.3 768.595 1249.12 765.025 1241.98 761.455C1235.01 757.885 1229.06 752.7 1224.13 745.9C1219.2 739.1 1216.73 730.175 1216.73 719.125C1216.73 709.435 1219.11 700.935 1223.87 693.625C1228.63 686.315 1235.43 680.705 1244.27 676.795C1253.11 672.715 1263.31 670.675 1274.87 670.675C1293.23 670.675 1307.77 675.095 1318.48 683.935C1329.36 692.775 1335.56 704.335 1337.09 718.615H1305.73C1304.54 711.815 1301.31 706.035 1296.04 701.275C1290.94 696.345 1283.88 693.88 1274.87 693.88C1266.71 693.88 1260.17 696.005 1255.24 700.255C1250.31 704.335 1247.84 710.285 1247.84 718.105C1247.84 724.225 1249.54 729.325 1252.94 733.405C1256.34 737.315 1260.59 740.46 1265.69 742.84C1270.96 745.05 1278.1 747.685 1287.11 750.745C1298.5 754.315 1307.77 757.97 1314.91 761.71C1322.22 765.28 1328.34 770.55 1333.27 777.52C1338.37 784.49 1340.92 793.67 1340.92 805.06ZM1629.35 670.675C1646.01 670.675 1661.06 674.585 1674.49 682.405C1688.09 690.225 1698.71 701.19 1706.36 715.3C1714.18 729.24 1718.09 745.05 1718.09 762.73C1718.09 780.41 1714.18 796.305 1706.36 810.415C1698.71 824.355 1688.09 835.32 1674.49 843.31C1661.06 851.13 1646.01 855.04 1629.35 855.04C1612.52 855.04 1597.31 851.13 1583.71 843.31C1570.28 835.32 1559.65 824.355 1551.83 810.415C1544.01 796.305 1540.1 780.41 1540.1 762.73C1540.1 745.05 1544.01 729.24 1551.83 715.3C1559.65 701.19 1570.28 690.225 1583.71 682.405C1597.31 674.585 1612.52 670.675 1629.35 670.675ZM1629.35 697.705C1617.79 697.705 1607.51 700.34 1598.5 705.61C1589.49 710.88 1582.43 718.445 1577.33 728.305C1572.4 738.165 1569.94 749.64 1569.94 762.73C1569.94 775.82 1572.4 787.295 1577.33 797.155C1582.43 807.015 1589.49 814.58 1598.5 819.85C1607.51 825.12 1617.79 827.755 1629.35 827.755C1640.74 827.755 1650.86 825.12 1659.7 819.85C1668.71 814.58 1675.68 807.015 1680.61 797.155C1685.71 787.295 1688.26 775.82 1688.26 762.73C1688.26 749.64 1685.71 738.165 1680.61 728.305C1675.68 718.445 1668.71 710.88 1659.7 705.61C1650.86 700.34 1640.74 697.705 1629.35 697.705ZM1952.45 830.305H2014.67V853H1923.38V672.97H1952.45V830.305ZM2241.17 672.97V779.815C2241.17 795.795 2244.66 807.695 2251.63 815.515C2258.77 823.335 2268.71 827.245 2281.46 827.245C2294.04 827.245 2303.82 823.335 2310.79 815.515C2317.93 807.695 2321.5 795.795 2321.5 779.815V672.97H2350.57V779.815C2350.57 804.465 2344.19 823.165 2331.44 835.915C2318.69 848.495 2301.86 854.785 2280.95 854.785C2260.21 854.785 2243.55 848.495 2230.97 835.915C2218.39 823.165 2212.1 804.465 2212.1 779.815V672.97H2241.17ZM2676.18 672.97V696.43H2625.94V853H2596.62V696.43H2546.64V672.97H2676.18ZM2902.89 672.97V853H2873.82V672.97H2902.89ZM3197.4 670.675C3214.06 670.675 3229.11 674.585 3242.54 682.405C3256.14 690.225 3266.76 701.19 3274.41 715.3C3282.23 729.24 3286.14 745.05 3286.14 762.73C3286.14 780.41 3282.23 796.305 3274.41 810.415C3266.76 824.355 3256.14 835.32 3242.54 843.31C3229.11 851.13 3214.06 855.04 3197.4 855.04C3180.57 855.04 3165.36 851.13 3151.76 843.31C3138.33 835.32 3127.7 824.355 3119.88 810.415C3112.06 796.305 3108.15 780.41 3108.15 762.73C3108.15 745.05 3112.06 729.24 3119.88 715.3C3127.7 701.19 3138.33 690.225 3151.76 682.405C3165.36 674.585 3180.57 670.675 3197.4 670.675ZM3197.4 697.705C3185.84 697.705 3175.56 700.34 3166.55 705.61C3157.54 710.88 3150.48 718.445 3145.38 728.305C3140.45 738.165 3137.99 749.64 3137.99 762.73C3137.99 775.82 3140.45 787.295 3145.38 797.155C3150.48 807.015 3157.54 814.58 3166.55 819.85C3175.56 825.12 3185.84 827.755 3197.4 827.755C3208.79 827.755 3218.91 825.12 3227.75 819.85C3236.76 814.58 3243.73 807.015 3248.66 797.155C3253.76 787.295 3256.31 775.82 3256.31 762.73C3256.31 749.64 3253.76 738.165 3248.66 728.305C3243.73 718.445 3236.76 710.88 3227.75 705.61C3218.91 700.34 3208.79 697.705 3197.4 697.705ZM3637.03 853H3607.96L3520.5 720.145V853H3491.43V673.225H3520.5L3607.96 806.59V673.225H3637.03V853ZM3966.49 805.06C3966.49 813.9 3964.36 822.145 3960.11 829.795C3955.86 837.275 3949.4 843.31 3940.73 847.9C3932.06 852.49 3921.44 854.785 3908.86 854.785C3896.62 854.785 3885.65 852.66 3875.96 848.41C3866.27 843.99 3858.54 837.87 3852.76 830.05C3846.98 822.23 3843.66 813.22 3842.81 803.02H3873.92C3874.77 810.84 3878.09 817.555 3883.87 823.165C3889.82 828.775 3897.72 831.58 3907.58 831.58C3916.42 831.58 3923.22 829.2 3927.98 824.44C3932.91 819.68 3935.38 813.56 3935.38 806.08C3935.38 799.62 3933.59 794.35 3930.02 790.27C3926.45 786.02 3922.03 782.705 3916.76 780.325C3911.49 777.945 3904.27 775.225 3895.09 772.165C3883.87 768.595 3874.69 765.025 3867.55 761.455C3860.58 757.885 3854.63 752.7 3849.7 745.9C3844.77 739.1 3842.3 730.175 3842.3 719.125C3842.3 709.435 3844.68 700.935 3849.44 693.625C3854.2 686.315 3861 680.705 3869.84 676.795C3878.68 672.715 3888.88 670.675 3900.44 670.675C3918.8 670.675 3933.34 675.095 3944.05 683.935C3954.93 692.775 3961.13 704.335 3962.66 718.615H3931.3C3930.11 711.815 3926.88 706.035 3921.61 701.275C3916.51 696.345 3909.45 693.88 3900.44 693.88C3892.28 693.88 3885.74 696.005 3880.81 700.255C3875.88 704.335 3873.41 710.285 3873.41 718.105C3873.41 724.225 3875.11 729.325 3878.51 733.405C3881.91 737.315 3886.16 740.46 3891.26 742.84C3896.53 745.05 3903.67 747.685 3912.68 750.745C3924.07 754.315 3933.34 757.97 3940.48 761.71C3947.79 765.28 3953.91 770.55 3958.84 777.52C3963.94 784.49 3966.49 793.67 3966.49 805.06Z" fill="white"/>
<path d="M524.819 0C709.06 0.00010484 871.126 94.9388 964.768 238.562H370.014V355.41H1021.69C1039.81 408.558 1049.64 465.54 1049.64 524.819C1049.64 583.63 1039.96 640.18 1022.12 692.968H370.014V809.815H965.587C872.073 954.144 709.599 1049.64 524.819 1049.64C234.97 1049.64 0.000165021 814.669 0 524.819C0 234.97 234.97 0 524.819 0ZM370.014 472.257V576.121H931.529V472.257H370.014Z" fill="#FE9A00"/>
</svg>
