<svg xmlns="http://www.w3.org/2000/svg" width="256" height="256" viewBox="0 0 256 256" role="img" aria-label="GitHub">
  <rect width="256" height="256" rx="56" fill="#181717"/>
  <path fill="#fff" d="M128 40c-50 0-90 40-90 90 0 40 26 74 62 86 5 1 7-2 7-5v-18c-25 5-31-11-31-11-4-10-10-13-10-13-8-6 1-6 1-6 9 1 14 10 14 10 8 14 22 10 27 8 1-6 3-10 6-13-20-2-41-10-41-45 0-10 4-19 10-26-1-2-4-12 1-25 0 0 8-3 27 10a92 92 0 0 1 49 0c19-13 27-10 27-10 5 13 2 23 1 25 6 7 10 16 10 26 0 35-21 43-41 45 3 3 6 9 6 18v25c0 3 2 6 7 5 36-12 62-46 62-86 0-50-40-90-90-90z"/>
</svg>
