<svg xmlns="http://www.w3.org/2000/svg" width="256" height="256" viewBox="0 0 256 256" role="img" aria-label="Tailwind CSS">
  <rect width="256" height="256" rx="56" fill="#0f172a"/>
  <path fill="#38bdf8" d="M128 76c-23 0-37 11-43 33 9-11 20-15 33-12 8 2 13 7 19 13 10 10 22 21 47 21 23 0 37-11 43-33-9 11-20 15-33 12-8-2-13-7-19-13-10-10-22-21-47-21zM72 125c-23 0-37 11-43 33 9-11 20-15 33-12 8 2 13 7 19 13 10 10 22 21 47 21 23 0 37-11 43-33-9 11-20 15-33 12-8-2-13-7-19-13-10-10-22-21-47-21z"/>
</svg>
